<svg width="34" height="32" viewBox="0 0 34 32" fill="none" xmlns="http://www.w3.org/2000/svg">
<path d="M24.8856 2.88685C24.6254 1.63756 23.4953 0.694153 22.1436 0.694153C21.8347 0.694153 21.5839 0.939186 21.5839 1.24233C21.5839 1.54547 21.8347 1.7905 22.1436 1.7905C23.0694 1.7905 23.8228 2.52834 23.8228 3.43502C23.8228 4.3417 23.0694 5.07954 22.1436 5.07954C21.8347 5.07954 21.5839 5.32457 21.5839 5.62771C21.5839 5.93085 21.8347 6.17588 22.1436 6.17588C23.4948 6.17588 24.6254 5.23248 24.8856 3.98319H32.2183V8.91675H1.99429V3.98319H9.83014H11.5093C11.8182 3.98319 12.069 3.73816 12.069 3.43502C12.069 3.13188 11.8182 2.88685 11.5093 2.88685H10.4928C10.7246 2.24987 11.3402 1.7905 12.069 1.7905C12.9947 1.7905 13.7481 2.52834 13.7481 3.43502C13.7481 4.3417 12.9947 5.07954 12.069 5.07954C11.76 5.07954 11.5093 5.32457 11.5093 5.62771C11.5093 5.93085 11.76 6.17588 12.069 6.17588C13.6121 6.17588 14.8675 4.94633 14.8675 3.43502C14.8675 1.92371 13.6121 0.694153 12.069 0.694153C10.7178 0.694153 9.58723 1.63756 9.32697 2.88685H0.874878V10.0131V31.94H33.3377V10.0131V2.88685H24.8856ZM32.2183 30.8437H1.99429V10.0131H32.2183V30.8437Z" fill="white"/>
<path d="M15.4272 1.7905C16.3529 1.7905 17.1063 2.52834 17.1063 3.43502C17.1063 4.3417 16.3529 5.07954 15.4272 5.07954C15.1182 5.07954 14.8675 5.32457 14.8675 5.62771C14.8675 5.93085 15.1182 6.17588 15.4272 6.17588C16.9703 6.17588 18.2257 4.94633 18.2257 3.43502C18.2257 1.92371 16.9703 0.694153 15.4272 0.694153C15.1182 0.694153 14.8675 0.939186 14.8675 1.24233C14.8675 1.54547 15.1182 1.7905 15.4272 1.7905Z" fill="white"/>
<path d="M18.7854 1.7905C19.7112 1.7905 20.4646 2.52834 20.4646 3.43502C20.4646 4.3417 19.7112 5.07954 18.7854 5.07954C18.4765 5.07954 18.2257 5.32457 18.2257 5.62771C18.2257 5.93085 18.4765 6.17588 18.7854 6.17588C20.3285 6.17588 21.584 4.94633 21.584 3.43502C21.584 1.92371 20.3285 0.694153 18.7854 0.694153C18.4765 0.694153 18.2257 0.939186 18.2257 1.24233C18.2257 1.54547 18.4765 1.7905 18.7854 1.7905Z" fill="white"/>
<path d="M5.91224 14.398H18.2257C18.5347 14.398 18.7854 14.153 18.7854 13.8499C18.7854 13.5467 18.5347 13.3017 18.2257 13.3017H5.91224C5.60329 13.3017 5.35254 13.5467 5.35254 13.8499C5.35254 14.153 5.60329 14.398 5.91224 14.398Z" fill="white"/>
<path d="M28.3004 22.0728H19.9049C19.5959 22.0728 19.3452 22.3178 19.3452 22.621C19.3452 22.9241 19.5959 23.1692 19.9049 23.1692H28.3004C28.6094 23.1692 28.8601 22.9241 28.8601 22.621C28.8601 22.3178 28.6094 22.0728 28.3004 22.0728Z" fill="white"/>
<path d="M5.91224 18.7838H11.5093C11.8182 18.7838 12.069 18.5388 12.069 18.2357C12.069 17.9325 11.8182 17.6875 11.5093 17.6875H5.91224C5.60329 17.6875 5.35254 17.9325 5.35254 18.2357C5.35254 18.5388 5.60329 18.7838 5.91224 18.7838Z" fill="white"/>
<path d="M28.3005 26.4581H22.7034C22.3945 26.4581 22.1437 26.7032 22.1437 27.0063C22.1437 27.3094 22.3945 27.5545 22.7034 27.5545H28.3005C28.6094 27.5545 28.8602 27.3094 28.8602 27.0063C28.8602 26.7032 28.6094 26.4581 28.3005 26.4581Z" fill="white"/>
<path d="M16.5466 18.2357C16.5466 18.5388 16.7973 18.7838 17.1063 18.7838H25.5019C25.8108 18.7838 26.0616 18.5388 26.0616 18.2357C26.0616 17.9325 25.8108 17.6875 25.5019 17.6875H17.1063C16.7973 17.6875 16.5466 17.9325 16.5466 18.2357Z" fill="white"/>
<path d="M14.7052 18.6251C14.806 18.521 14.8675 18.3784 14.8675 18.2359C14.8675 18.0928 14.806 17.9503 14.7052 17.8467C14.4981 17.6439 14.1175 17.6439 13.9105 17.8467C13.8097 17.9503 13.7481 18.0928 13.7481 18.2359C13.7481 18.3784 13.8097 18.521 13.9105 18.6251C14.0168 18.7287 14.1623 18.7841 14.3078 18.7841C14.4534 18.7841 14.5989 18.7287 14.7052 18.6251Z" fill="white"/>
<path d="M8.15103 22.621C8.15103 22.9241 8.40178 23.1692 8.71074 23.1692H17.1063C17.4153 23.1692 17.666 22.9241 17.666 22.621C17.666 22.3178 17.4153 22.0728 17.1063 22.0728H8.71074C8.40178 22.0728 8.15103 22.3178 8.15103 22.621Z" fill="white"/>
<path d="M5.91224 23.1696C6.05777 23.1696 6.20329 23.1093 6.30963 23.0107C6.41038 22.9065 6.47195 22.764 6.47195 22.6215C6.47195 22.4784 6.41038 22.3359 6.30963 22.2377C6.10254 22.0294 5.72194 22.0294 5.51485 22.2323C5.41411 22.3359 5.35254 22.4784 5.35254 22.6215C5.35254 22.764 5.41411 22.9065 5.51485 23.0107C5.6212 23.1093 5.76112 23.1696 5.91224 23.1696Z" fill="white"/>
<path d="M28.3004 18.7841C28.4459 18.7841 28.5915 18.7287 28.6978 18.6251C28.8042 18.521 28.8601 18.3784 28.8601 18.2359C28.8601 18.0928 28.8042 17.9503 28.6978 17.8467C28.4851 17.6439 28.1101 17.6439 27.903 17.8467C27.8023 17.9503 27.7407 18.0928 27.7407 18.2359C27.7407 18.3784 27.8023 18.521 27.903 18.6251C28.0094 18.7287 28.1549 18.7841 28.3004 18.7841Z" fill="white"/>
<path d="M19.9048 26.4581H5.91224C5.60329 26.4581 5.35254 26.7032 5.35254 27.0063C5.35254 27.3094 5.60329 27.5545 5.91224 27.5545H19.9048C20.2138 27.5545 20.4646 27.3094 20.4646 27.0063C20.4646 26.7032 20.2138 26.4581 19.9048 26.4581Z" fill="white"/>
</svg>
