<svg width="34" height="33" viewBox="0 0 34 33" fill="none" xmlns="http://www.w3.org/2000/svg">
<path fill-rule="evenodd" clip-rule="evenodd" d="M4.05371 1.07481C4.05371 0.864581 4.23022 0.694153 4.44794 0.694153H32.8328C33.0505 0.694153 33.227 0.864581 33.227 1.07481V28.6093C33.227 28.8196 33.0505 28.99 32.8328 28.99C32.615 28.99 32.4385 28.8196 32.4385 28.6093V1.45548H4.44794C4.23022 1.45548 4.05371 1.28505 4.05371 1.07481Z" fill="white" stroke="white" stroke-width="0.5" stroke-linecap="round" stroke-linejoin="round"/>
<path d="M4.46744 29.1663L4.59244 29.1663L4.59244 29.0413L4.59244 5.36024L6.20017 6.97858C6.40179 7.18153 6.72903 7.18153 6.93066 6.97858C7.13183 6.77608 7.13183 6.4481 6.93066 6.2456L4.44156 3.74007C4.23994 3.53711 3.9127 3.53711 3.71108 3.74007L1.22198 6.2456C1.02081 6.4481 1.02081 6.77608 1.22198 6.97858C1.42361 7.18153 1.75085 7.18153 1.95247 6.97858L3.5602 5.36024L3.5602 29.0413L3.5602 29.1663L3.6852 29.1663L4.46744 29.1663Z" fill="white" stroke="white" stroke-width="0.25"/>
<path d="M3.5592 29.4342V29.5592H3.6842L27.3339 29.5592L25.716 31.1793C25.5138 31.3818 25.5138 31.7102 25.716 31.9127C25.9184 32.1154 26.2466 32.1154 26.4489 31.9127L28.951 29.4072C29.1533 29.2046 29.1533 28.8763 28.951 28.6738L26.4489 26.1682C26.2466 25.9656 25.9184 25.9656 25.716 26.1682C25.5138 26.3708 25.5138 26.6991 25.716 26.9017L27.3339 28.5218L3.6842 28.5218H3.5592V28.6468V29.4342Z" fill="white" stroke="white" stroke-width="0.25"/>
<path fill-rule="evenodd" clip-rule="evenodd" d="M14.8599 0.809467C15.0126 0.963218 15.0126 1.2125 14.8599 1.36625L10.1664 6.09072C10.0137 6.24447 9.76602 6.24447 9.61328 6.09072C9.46053 5.93697 9.46053 5.68769 9.61328 5.53394L14.3068 0.809467C14.4595 0.655715 14.7071 0.655715 14.8599 0.809467Z" fill="white" stroke="white" stroke-width="0.5" stroke-linecap="round" stroke-linejoin="round"/>
<path fill-rule="evenodd" clip-rule="evenodd" d="M32.982 19.5764C33.1347 19.7302 33.1347 19.9795 32.982 20.1332L28.6797 24.464C28.5269 24.6177 28.2793 24.6177 28.1265 24.464C27.9738 24.3102 27.9738 24.0609 28.1265 23.9072L32.4289 19.5764C32.5816 19.4227 32.8293 19.4227 32.982 19.5764Z" fill="white" stroke="white" stroke-width="0.5" stroke-linecap="round" stroke-linejoin="round"/>
<path fill-rule="evenodd" clip-rule="evenodd" d="M20.725 0.807699C20.8787 0.960468 20.8803 1.20974 20.7285 1.36447L10.5593 11.7321C10.4076 11.8868 10.1599 11.8884 10.0062 11.7356C9.8525 11.5828 9.85093 11.3336 10.0027 11.1788L20.1719 0.811245C20.3237 0.656518 20.5713 0.65493 20.725 0.807699Z" fill="white" stroke="white" stroke-width="0.5" stroke-linecap="round" stroke-linejoin="round"/>
<path fill-rule="evenodd" clip-rule="evenodd" d="M33.1123 13.0141C33.2651 13.1679 33.2651 13.4171 33.1123 13.5709L23.2039 23.5448C23.0511 23.6985 22.8035 23.6985 22.6508 23.5448C22.498 23.391 22.498 23.1417 22.6508 22.988L32.5592 13.0141C32.7119 12.8604 32.9596 12.8604 33.1123 13.0141Z" fill="white" stroke="white" stroke-width="0.5" stroke-linecap="round" stroke-linejoin="round"/>
<path fill-rule="evenodd" clip-rule="evenodd" d="M26.987 0.942946C27.1385 1.09793 27.1365 1.34721 26.9825 1.49971L10.6857 17.6417C10.5317 17.7942 10.2841 17.7922 10.1326 17.6372C9.98109 17.4822 9.98309 17.2329 10.1371 17.0804L26.4339 0.938456C26.5878 0.78595 26.8355 0.78796 26.987 0.942946Z" fill="white" stroke="white" stroke-width="0.5" stroke-linecap="round" stroke-linejoin="round"/>
<path fill-rule="evenodd" clip-rule="evenodd" d="M33.1124 6.84633C33.2652 7.00008 33.2652 7.24936 33.1124 7.40312L16.6853 23.9388C16.5325 24.0925 16.2849 24.0925 16.1321 23.9388C15.9794 23.785 15.9794 23.5357 16.1321 23.382L32.5593 6.84633C32.712 6.69258 32.9597 6.69258 33.1124 6.84633Z" fill="white" stroke="white" stroke-width="0.5" stroke-linecap="round" stroke-linejoin="round"/>
<path fill-rule="evenodd" clip-rule="evenodd" d="M32.8517 0.940692C33.0044 1.09444 33.0044 1.34372 32.8517 1.49748L10.4273 24.0699C10.2745 24.2237 10.0269 24.2237 9.87414 24.0699C9.7214 23.9162 9.7214 23.6669 9.87414 23.5132L32.2985 0.940692C32.4513 0.78694 32.6989 0.78694 32.8517 0.940692Z" fill="white" stroke="white" stroke-width="0.5" stroke-linecap="round" stroke-linejoin="round"/>
</svg>
